<svg xmlns="http://www.w3.org/2000/svg" height="512" viewBox="0 0 64 64" width="512"  xmlns:v="https://vecta.io/nano"><path d="M43 49.35V61H3V49.35a9.989 9.989 0 0 1 7.02-9.54l6.77-2.12L16 44l7-3 7 3-.79-6.31 6.77 2.12c.01 0 .01 0 .02.01A9.966 9.966 0 0 1 42.99 49c.01.11.01.23.01.35z" fill="#3d9ae2"/><path d="M56 34H38a2.006 2.006 0 0 0-2 2v13h22V36a2.006 2.006 0 0 0-2-2z" fill="#5aaae7"/><path d="M61 57H33l3-8h22z" fill="#acabb1"/><path d="m27 32v5l-4 4-4-4v-5z" fill="#ffc477"/><path d="M55.36 35.95l-1.41 1.41L52 36.19a6.159 6.159 0 0 1-1.45.6L50 39h-2l-.55-2.21a6.159 6.159 0 0 1-1.45-.6l-1.95 1.17-1.41-1.41L43.81 34h10.38z" fill="#3d9ae2"/><path d="M52.79 30.55a6.159 6.159 0 0 1-.6 1.45l1.17 1.95-1.41 1.41L50 34.19a6.159 6.159 0 0 1-1.45.6L48 37h-2l-.55-2.21a6.159 6.159 0 0 1-1.45-.6l-1.95 1.17-1.41-1.41L41.81 32a6.159 6.159 0 0 1-.6-1.45L39 30v-2l2.21-.55a6.159 6.159 0 0 1 .6-1.45l-1.17-1.95 1.41-1.41L44 23.81a6.159 6.159 0 0 1 1.45-.6L46 21h2l.55 2.21a6.159 6.159 0 0 1 1.45.6l1.95-1.17 1.41 1.41L52.19 26a6.159 6.159 0 0 1 .6 1.45L55 28v2z" fill="#ff9811"/><path d="M61 57v3a1 1 0 0 1-1 1H34a1 1 0 0 1-1-1v-3z" fill="#898890"/><path d="M52 57H42l1-3h8z" fill="#c6c5ca"/><path d="M34 17a2 2 0 1 1-1 3.73v-3.46a2 2 0 0 1 1-.27zm-21 1v2.73a2 2 0 1 1 0-3.46z" fill="#ffb655"/><path d="M29.21 37.69L30 44l-7-3 4-4z" fill="#e6e7e8"/><path d="M27 32v2.16a9.944 9.944 0 0 1-8 0V32z" fill="#ffb655"/><path d="M33 20.73V23a10 10 0 0 1-20 0v-5s5-5 9-6c0 0 1 3 3 4a3.7 3.7 0 0 1 3-2 6.889 6.889 0 0 0 5 4z" fill="#ffc477"/><path d="M23 41l-7 3 .79-6.31L19 37z" fill="#e6e7e8"/><path d="M33 17.27V18a6.889 6.889 0 0 1-5-4 3.7 3.7 0 0 0-3 2c-2-1-3-4-3-4-4 1-9 6-9 6v-5a10 10 0 0 1 20 0z" fill="#57565c"/><circle cx="47" cy="29" fill="#ffd422" r="3"/><path d="M58 39.15V49h-9.79A23.577 23.577 0 0 0 58 39.15z" fill="#3d9ae2"/><path d="M34 16v-3a11 11 0 0 0-22 0v3a3 3 0 0 0 0 6v1a11.014 11.014 0 0 0 6 9.79v3.47l-8.28 2.59A10.964 10.964 0 0 0 2 49.35V61a1 1 0 0 0 1 1h27v-2H11V49H9v11H4V49.35a8.959 8.959 0 0 1 6.32-8.59l5.28-1.65-.59 4.77a.983.983 0 0 0 .39.92 1.029 1.029 0 0 0 .6.2 1.046 1.046 0 0 0 .39-.08L23 42.09l6.61 2.83A1.046 1.046 0 0 0 30 45a1.029 1.029 0 0 0 .6-.2.983.983 0 0 0 .39-.92l-.59-4.77 2.3.72.6-1.91-5.3-1.66v-3.47A11.014 11.014 0 0 0 34 23v-1a3 3 0 0 0 0-6zm-22 4a1 1 0 0 1 0-2zm5.21 22.39l.49-3.94 1.02-.32 2.53 2.53zm2.79-5.8v-3.02a10.68 10.68 0 0 0 6 0v3.02l-3 3zm8.3 1.86l.49 3.94-4.04-1.73 2.53-2.53zM32 23a9 9 0 0 1-18 0v-4.58c.99-.94 4.42-4.06 7.42-5.19a7.706 7.706 0 0 0 3.13 3.66 1 1 0 0 0 1.34-.44 3.144 3.144 0 0 1 1.52-1.36A8.058 8.058 0 0 0 32 18.73zm0-6.39a5.591 5.591 0 0 1-3.05-2.93A1.014 1.014 0 0 0 28 13a4.268 4.268 0 0 0-3.25 1.61 8.027 8.027 0 0 1-1.8-2.93 1.014 1.014 0 0 0-1.19-.65c-2.77.69-5.88 3.08-7.76 4.7V13a9 9 0 0 1 18 0zM34 20v-2a1 1 0 0 1 0 2zm-17-1h2v2h-2zm10 0h2v2h-2zm0 6h-2a2 2 0 0 1-4 0h-2a4 4 0 0 0 8 0zm34.937 31.649L59 48.818V36a3 3 0 0 0-3-3v2a1 1 0 0 1 1 1v12H37V36a1 1 0 0 1 1-1v-2a3 3 0 0 0-3 3v12.818l-2.937 7.831A1 1 0 0 0 32 57v3a2 2 0 0 0 2 2h26a2 2 0 0 0 2-2v-3a1 1 0 0 0-.063-.351zM57.307 50l2.25 6H52.72l-.772-2.316A1 1 0 0 0 51 53h-8a1 1 0 0 0-.948.684L41.28 56h-6.837l2.25-6zm-6.694 6h-7.226l.334-1h6.558zM34 60v-2h26v2zm12-20h2v2h-2zm4 0h2v2h-2zm-8 0h2v2h-2zm-3.242-9.03l1.667.417a6.66 6.66 0 0 0 .237.575l-.884 1.473a1 1 0 0 0 .151 1.222l1.414 1.414a1 1 0 0 0 1.221.15l1.474-.884q.282.132.574.238l.418 1.668A1 1 0 0 0 46 38h2a1 1 0 0 0 .97-.757l.418-1.668q.292-.107.574-.238l1.474.884a1 1 0 0 0 1.221-.15l1.414-1.414a1 1 0 0 0 .151-1.222l-.884-1.473.237-.575 1.667-.417A1 1 0 0 0 56 30v-2a1 1 0 0 0-.758-.97l-1.667-.417a6.66 6.66 0 0 0-.237-.575l.884-1.473a1 1 0 0 0-.151-1.222l-1.414-1.414a1 1 0 0 0-1.221-.15l-1.474.884q-.282-.132-.574-.238l-.418-1.668A1 1 0 0 0 48 20h-2a1 1 0 0 0-.97.757l-.418 1.668q-.292.106-.574.238l-1.474-.884a1 1 0 0 0-1.221.15l-1.414 1.414a1 1 0 0 0-.151 1.222l.884 1.473-.237.575-1.667.417A1 1 0 0 0 38 28v2a1 1 0 0 0 .758.97zM40 28.781l1.452-.364a1 1 0 0 0 .724-.71 4.983 4.983 0 0 1 .5-1.2 1 1 0 0 0-.008-1.016l-.77-1.283.31-.309 1.283.769a1 1 0 0 0 1.016.008 5 5 0 0 1 1.2-.5 1 1 0 0 0 .711-.723L46.78 22h.44l.363 1.453a1 1 0 0 0 .711.723 5 5 0 0 1 1.2.5 1 1 0 0 0 1.016-.008l1.29-.768.31.309-.77 1.283a1 1 0 0 0-.008 1.016 4.983 4.983 0 0 1 .5 1.2 1 1 0 0 0 .724.71l1.444.363v.438l-1.452.364a1 1 0 0 0-.724.71 4.983 4.983 0 0 1-.5 1.2 1 1 0 0 0 .008 1.016l.77 1.283-.31.309-1.283-.769a1 1 0 0 0-1.016-.008 5 5 0 0 1-1.2.5 1 1 0 0 0-.711.723L47.22 36h-.44l-.363-1.453a1 1 0 0 0-.711-.723 5 5 0 0 1-1.2-.5 1 1 0 0 0-1.016.008l-1.283.769-.307-.301.77-1.283a1 1 0 0 0 .008-1.016 4.983 4.983 0 0 1-.5-1.2 1 1 0 0 0-.724-.71L40 29.219zM47 33a4 4 0 1 0-4-4 4 4 0 0 0 4 4zm0-6a2 2 0 1 1-2 2 2 2 0 0 1 2-2z"/></svg>