<svg xmlns="http://www.w3.org/2000/svg" height="512" viewBox="0 0 58 58" width="512"  xmlns:v="https://vecta.io/nano"><path d="M14.678 57.951l1.068-.298a1.93 1.93 0 0 0 1.34-2.379L4.878 11.584c-.172-.617-.582-1.139-1.14-1.454a2.41 2.41 0 0 0-1.834-.222l-.138.039c-1.284.359-2.034 1.69-1.675 2.974L12.3 56.61a1.93 1.93 0 0 0 2.379 1.34zM57.67 27.42a46.22 46.22 0 0 1-10.64-7.32.95.95 0 0 1-.27-.97A136.84 136.84 0 0 0 50.27.95c.12-1.02-.43-1.32-1.01-.62-11.38 13.61-31.07-2.49-42.79 9.88a3.99 3.99 0 0 1 .33.83l7.92 28.36c11.74-12.22 31.36 3.78 42.72-9.8.58-.7.69-1.98.23-2.18z"/></svg>